# AST/ASF file generated using VICON BodyLanguage
# -----------------------------------------------
:version 1.10
:name VICON
:units
  mass 1.0
  length 0.45
  angle deg
:documentation
   .ast/.asf automatically generated from VICON data using
   VICON BodyBuilder and BodyLanguage model FoxedUp or BRILLIANT.MOD
:root
   order TX TY TZ RX RY RZ
   axis XYZ
   position 0 0 0  
   orientation 0 0 0 
:bonedata
  begin
     id 1 
     name lhipjoint
     direction 0.64773 -0.699417 0.302095 
     length 2.48597 
     axis 0 0 0  XYZ
  end
  begin
     id 2 
     name lfemur
     direction 0.34202 -0.939693 0  
     length 6.71947  
     axis 0 0 20  XYZ
    dof rx ry rz
    limits (-160.0 20.0)
           (-70.0 70.0)
           (-60.0 70.0)
  end
  begin
     id 3 
     name ltibia
     direction 0.34202 -0.939693 0   
     length 8.08777   
     axis 0 0 20   XYZ
    dof rx
    limits (-10.0 170.0)
  end
  begin
     id 4 
     name lfoot
     direction 0.0808503 -0.222134 0.971658   
     length 2.08264   
     axis -90 7.62852e-016 20   XYZ
    dof rx rz
    limits (-45.0 90.0)
           (-70.0 20.0)
  end
  begin
     id 5 
     name ltoes
     direction 1.53502e-011 -4.22007e-011 1   
     length 1.04662   
     axis -90 7.62852e-016 20   XYZ
    dof rx
    limits (-90.0 20.0)
  end
  begin
     id 6 
     name rhipjoint
     direction -0.610924 -0.726792 0.313919   
     length 2.39233  
     axis 0 0 0  XYZ 
  end
  begin
     id 7 
     name rfemur
     direction -0.34202 -0.939693 0   
     length 6.96955   
     axis 0 0 -20   XYZ
    dof rx ry rz
    limits (-160.0 20.0)
           (-70.0 70.0)
           (-70.0 60.0)
  end
  begin
     id 8 
     name rtibia
     direction -0.34202 -0.939693 0   
     length 8.19584   
     axis 0 0 -20   XYZ
    dof rx
    limits (-10.0 170.0)
 end
 begin
     id 9 
     name rfoot
     direction -0.077777 -0.213691 0.9738   
     length 2.07539  
     axis -90 -7.62852e-016 -20   XYZ
    dof rx rz
    limits (-45.0 90.0)
           (-20.0 70.0)
  end
  begin
     id 10 
     name rtoes
     direction -1.53558e-011 -4.22006e-011 1   
     length 1.04381   
     axis -90 -7.62852e-016 -20   XYZ
    dof rx
    limits (-90.0 20.0)
  end
  begin
     id 11 
     name lowerback
     direction -0.00971646 0.996074 0.0879841   
     length 1.67643   
     axis 0 0 0   XYZ
    dof rx ry rz
    limits (-20.0 45.0)
           (-30.0 30.0)
           (-30.0 30.0)
  end
  begin
     id 12 
     name upperback
     direction 0.0127391 0.991676 0.128127   
     length 1.63741   
     axis 0 0 0   XYZ
    dof rx ry rz
    limits (-20.0 45.0)
           (-30.0 30.0)
           (-30.0 30.0)
  end
  begin
     id 13 
     name thorax
     direction 0.0167583 0.996049 0.0872067   
     length 1.65931   
     axis 0 0 0   XYZ
    dof rx ry rz
    limits (-20.0 45.0)
           (-30.0 30.0)
           (-30.0 30.0)
  end
  begin
     id 14 
     name lowerneck
     direction -0.0317829 0.998312 0.0486079   
     length 1.79021   
     axis 0 0 0   XYZ
    dof rx ry rz
    limits (-20.0 45.0)
           (-30.0 30.0)
           (-30.0 30.0)
  end
  begin
     id 15 
     name upperneck
     direction 0.0896851 0.972452 -0.215159   
     length 1.78797   
     axis 0 0 0   XYZ
    dof rx ry rz
    limits (-20.0 45.0)
           (-30.0 30.0)
           (-30.0 30.0)
  end
  begin
     id 16
     name head
     direction 0.0310949 0.996503 -0.0775582  
     length 1.81549  
     axis 0 0 0   XYZ
    dof rx ry rz
    limits (-20.0 45.0)
           (-30.0 30.0)
           (-30.0 30.0)
  end
  begin
     id 17 
     name lclavicle
     direction 0.853638 0.502051 -0.138733  
     length 3.31627  
     axis 0 0 0   XYZ
    dof ry rz
    limits (-20.0 10.0)
           (0.0 20.0)
  end
  begin
     id 18 
     name lhumerus
     direction 1 -4.48962e-011 -1.41788e-018   
     length 5.54893   
     axis 180 -30 -90   XYZ
    dof rx ry rz
    limits (-60.0 90.0)
           (-90.0 90.0)
           (-90.0 90.0)
  end
  begin
     id 19
     name lradius
     direction 1 -4.48962e-011 -4.95754e-027   
     length 3.02898   
     axis 180 -30 -90   XYZ
    dof rx
    limits (-10.0 170.0)
  end
  begin
     id 20
     name lwrist
     direction 1 -4.48952e-011 -1.03764e-026   
     length 1.51449   
     axis 9.09556e-015 90 90   XYZ
    dof ry
    limits (-180.0 0.0)
 end
  begin
     id 21 
     name lhand
     direction 1 -4.4902e-011 -2.07528e-026   
     length 0.640951   
     axis 1.3242e-014 90 90   XYZ
    dof rx rz
    limits (-90.0 90.0)
           (-45.0 45.0)
  end
  begin
     id 22 
     name lfingers
     direction 1 -4.49014e-011 -4.15056e-026   
     length 0.516751   
     axis 2.64841e-014 90 90   XYZ
    dof rx
    limits (0.0 90.0)
  end
  begin
     id 23
     name lthumb
     direction 0.707107 -6.35008e-011 0.707107   
     length 0.741954   
     axis -90 45 2.85299e-015   XYZ
    dof rx rz
    limits (-45.0 45.0)
           (-45.0 45.0)
  end
  begin
     id 24 
     name rclavicle
     direction -0.888531 0.455324 -0.0565039   
     length 3.20126  
     axis 0 0 0   XYZ 
    dof ry rz
    limits (-10.0 20.0)
           (-20.0 0.0)
  end
  begin
     id 25 
     name rhumerus
     direction -1 -4.48946e-011 -8.98298e-028  
     length 5.3519   
     axis 180 30 90   XYZ
    dof rx ry rz
    limits (-90.0 60.0)
           (-90.0 90.0)
           (-90.0 90.0)
  end
  begin
     id 26 
     name rradius
     direction -1 -4.4899e-011 -3.18779e-027   
     length 3.02531   
     axis 180 30 90   XYZ
    dof rx
    limits (-10.0 170.0)
  end
  begin
     id 27 
     name rwrist
     direction -1 -4.4897e-011 -1.03764e-026   
     length 1.51266   
     axis 9.09556e-015 -90 -90   XYZ
    dof ry
    limits (-180.0 0.0)
  end
  begin
     id 28
     name rhand
     direction -1 -4.48941e-011 -2.07528e-026   
     length 0.78389   
     axis 1.3242e-014 -90 -90   XYZ
    dof rx rz
    limits (-90.0 90.0)
           (-45.0 45.0)
  end
  begin
     id 29
     name rfingers
     direction -1 -4.49012e-011 -4.15056e-026   
     length 0.631992   
     axis 2.64841e-014 -90 -90   XYZ
    dof rx
    limits (0.0 90.0)
  end
  begin
     id 30
     name rthumb
     direction -0.707107 -6.3496e-011 0.707107   
     length 0.907418   
     axis -90 -45 -2.85299e-015   XYZ
    dof rx rz
    limits (-45.0 45.0)
           (-45.0 45.0)
  end
:hierarchy
  begin
    root lhipjoint rhipjoint lowerback
    lhipjoint lfemur
    lfemur ltibia
    ltibia lfoot
    lfoot ltoes
    rhipjoint rfemur
    rfemur rtibia
    rtibia rfoot
    rfoot rtoes
    lowerback upperback
    upperback thorax
    thorax lowerneck lclavicle rclavicle
    lowerneck upperneck
    upperneck head
    lclavicle lhumerus
    lhumerus lradius
    lradius lwrist
    lwrist lhand lthumb
    lhand lfingers
    rclavicle rhumerus
    rhumerus rradius
    rradius rwrist
    rwrist rhand rthumb
    rhand rfingers
  end

#!OML:ASF E:\Style3\Style3.ASF
:FULLY-SPECIFIED
:DEGREES
1469
root 1.30341 17.7535 0.702209 -173.962 87.6185 171.239
lowerback -15.9131 -1.94434 -0.262495
upperback -12.7427 -1.55955 0.615673
thorax -4.67305 -0.330461 0.585273
lowerneck -10.9561 -3.29721 -5.75978
upperneck 38.2477 -4.26499 6.43268
head 15.5865 -1.14445 3.28653
rclavicle -1.39149e-015 -4.67144e-015
rhumerus 9.32513 -23.2502 -32.1494
rradius 35.4277
rwrist -33.6862
rhand -0.685384 19.1903
rfingers 7.12502
rthumb 24.9337 -9.20309
lclavicle -1.39149e-015 -4.67144e-015
lhumerus 8.74432 32.7921 23.0573
lradius 33.1339
lwrist 38.4852
lhand 13.2868 25.6726
lfingers 7.12502
lthumb 38.2367 51.407
rfemur -9.81335 11.5357 18.7995
rtibia 14.6405
rfoot -20.305 -22.8581
rtoes -6.31957
lfemur -2.81259 -22.0061 -15.0749
ltibia -4.77083e-015
lfoot -13.8034 24.4884
ltoes -8.91392
1470
root 1.29703 17.7373 0.702208 -174.837 87.6115 170.375
lowerback -15.8966 -1.97403 -0.34573
upperback -12.7174 -1.59268 0.648013
thorax -4.6496 -0.341529 0.662373
lowerneck -11.0739 -3.30369 -5.71724
upperneck 38.263 -4.25949 6.3562
head 15.6185 -1.14684 3.24636
rclavicle 1.14301e-014 2.08724e-014
rhumerus 9.35872 -22.8751 -31.9585
rradius 35.5737
rwrist -33.8872
rhand -0.78069 19.2545
rfingers 7.12502
rthumb 24.8424 -9.15156
lclavicle 1.14301e-014 2.08724e-014
lhumerus 8.85387 32.9467 23.0676
lradius 33.0938
lwrist 38.3241
lhand 13.3624 25.8155
lfingers 7.12502
lthumb 38.308 51.5303
rfemur -10.1108 11.4185 18.8006
rtibia 14.9895
rfoot -19.4087 -23.5263
rtoes -9.87841
lfemur -2.82067 -22.017 -15.104
ltibia -7.95139e-015
lfoot -13.7907 24.4791
ltoes -9.01125
1471
root 1.28972 17.724 0.701395 -175.233 87.5679 169.962
lowerback -15.9104 -1.99168 -0.37804
upperback -12.7083 -1.61258 0.655069
thorax -4.63075 -0.349238 0.68529
lowerneck -11.0319 -3.31533 -5.71915
upperneck 38.1716 -4.28099 6.35321
head 15.5638 -1.16006 3.23671
rclavicle 4.77083e-015 6.95746e-015
rhumerus 9.38034 -22.7797 -31.8679
rradius 35.7178
rwrist -33.8358
rhand -0.886769 19.162
rfingers 7.12502
rthumb 24.7407 -9.25807
lclavicle 4.77083e-015 6.95746e-015
lhumerus 9.08345 33.1792 23.1996
lradius 33.0239
lwrist 38.0575
lhand 13.4228 26.0804
lfingers 7.12502
lthumb 38.3651 51.7794
rfemur -10.3744 11.5172 18.7531
rtibia 15.1325
rfoot -18.6553 -24.1475
rtoes -12.0309
lfemur -2.8755 -22.0605 -15.099
ltibia -6.36111e-015
lfoot -13.735 24.4963
ltoes -9.01403
1472
root 1.29271 17.7517 0.701735 -175.133 87.5669 170.063
lowerback -15.9285 -1.97568 -0.369066
upperback -12.6858 -1.59466 0.643125
thorax -4.59711 -0.342381 0.669251
lowerneck -11.0099 -3.33139 -5.70469
upperneck 38.1225 -4.32219 6.38151
head 15.5378 -1.17301 3.23718
rclavicle 5.31749e-015 7.95139e-016
rhumerus 9.40505 -22.8224 -31.8349
rradius 35.8189
rwrist -33.7531
rhand -0.814012 19.0621
rfingers 7.12502
rthumb 24.8105 -9.34841
lclavicle 5.31749e-015 7.95139e-016
lhumerus 9.24113 33.2035 23.2552
lradius 33.044
lwrist 38.0147
lhand 13.2631 26.3101
lfingers 7.12502
lthumb 38.2143 52.0507
rfemur -10.1979 11.6741 18.7061
rtibia 15.1196
rfoot -20.3371 -23.1067
rtoes -6.59146
lfemur -2.88319 -22.062 -15.0981
ltibia -1.11319e-014
lfoot -13.6555 24.5113
ltoes -9.21176
1473
root 1.29269 17.7629 0.701154 -175.446 87.5433 169.739
lowerback -15.948 -1.99224 -0.388446
upperback -12.6763 -1.61447 0.659833
thorax -4.57493 -0.350607 0.695005
lowerneck -11.0603 -3.32978 -5.71327
upperneck 38.1731 -4.31814 6.39023
head 15.5758 -1.16961 3.24595
rclavicle -1.42131e-014 1.98785e-016
rhumerus 9.47986 -22.8206 -31.8386
rradius 35.9247
rwrist -33.7661
rhand -0.698964 19.0148
rfingers 7.12502
rthumb 24.9207 -9.38042
lclavicle -1.42131e-014 1.98785e-016
lhumerus 9.22406 33.0467 23.1799
lradius 33.0899
lwrist 38.1308
lhand 12.9884 26.3516
lfingers 7.12502
lthumb 37.9549 52.1631
rfemur -10.0192 11.6802 18.6745
rtibia 14.9399
rfoot -20.8731 -22.6866
rtoes -4.74306
lfemur -2.90889 -22.0873 -15.113
ltibia -1.11319e-014
lfoot -13.6353 24.5522
ltoes -9.23531
1474
root 1.28718 17.7527 0.70062 -174.807 87.4944 170.359
lowerback -15.9545 -2.01356 -0.383239
upperback -12.6922 -1.6402 0.682991
thorax -4.58836 -0.361761 0.713494
lowerneck -11.0594 -3.3251 -5.71169
upperneck 38.2345 -4.31382 6.40712
head 15.607 -1.16255 3.25747
rclavicle 4.37326e-015 0
rhumerus 9.44627 -22.6193 -31.7459
rradius 36.0478
rwrist -33.8944
rhand -0.794073 18.9537
rfingers 7.12502
rthumb 24.8296 -9.4541
lclavicle 4.37326e-015 0
lhumerus 9.26474 32.9806 23.1648
lradius 33.043
lwrist 38.0275
lhand 12.8703 26.3584
lfingers 7.12502
lthumb 37.8433 52.2001
rfemur -10.2321 11.6546 18.7065
rtibia 15.0995
rfoot -20.3547 -23.1446
rtoes -6.6609
lfemur -2.96284 -22.132 -15.0644
ltibia -1.11319e-014
lfoot -13.6803 24.5606
ltoes -9.28565
1475
root 1.27692 17.7251 0.69986 -173.407 87.4276 171.763
lowerback -15.9338 -2.03745 -0.337671
upperback -12.6902 -1.67656 0.719833
thorax -4.59683 -0.381728 0.723021
lowerneck -11.0478 -3.31153 -5.69087
upperneck 38.2508 -4.2898 6.38677
head 15.6089 -1.15134 3.24967
rclavicle -4.12478e-015 9.93923e-016
rhumerus 9.31222 -22.1898 -31.5419
rradius 36.295
rwrist -34.2389
rhand -1.05159 18.8122
rfingers 7.12502
rthumb 24.5828 -9.62948
lclavicle -4.12478e-015 9.93923e-016
lhumerus 9.32216 33.0644 23.2123
lradius 33.017
lwrist 37.7682
lhand 12.8483 26.4557
lfingers 7.12502
lthumb 37.8226 52.303
rfemur -10.2156 11.388 18.841
rtibia 14.7512
rfoot -18.3621 -24.2246
rtoes -12.6922
lfemur -2.99424 -22.1912 -14.9792
ltibia -1.59028e-015
lfoot -13.7039 24.5817
ltoes -9.16339
1476
root 1.27811 17.7413 0.699057 -173.68 87.4036 171.5
lowerback -15.9236 -2.06119 -0.354609
upperback -12.6818 -1.70698 0.741098
thorax -4.59111 -0.395551 0.751565
lowerneck -11.0359 -3.28588 -5.6654
upperneck 38.2532 -4.25623 6.38479
head 15.6031 -1.13337 3.24984
rclavicle 1.08835e-014 4.37326e-015
rhumerus 9.16344 -21.8199 -31.3728
rradius 36.5956
rwrist -34.5532
rhand -1.18502 18.7879
rfingers 7.12502
rthumb 24.4549 -9.67105
lclavicle 1.08835e-014 4.37326e-015
lhumerus 9.32206 33.1165 23.2113
lradius 33.0423
lwrist 37.5769
lhand 12.81 26.5877
lfingers 7.12502
lthumb 37.7864 52.4447
rfemur -9.9505 11.6052 18.7746
rtibia 14.4045
rfoot -19.2133 -23.7384
rtoes -9.0127
lfemur -2.98541 -22.2188 -15.0022
ltibia -1.43125e-014
lfoot -13.664 24.5848
ltoes -9.11818
1477
root 1.27175 17.7263 0.697218 -174.499 87.3906 170.674
lowerback -15.9352 -2.05835 -0.36809
upperback -12.6632 -1.70386 0.723949
thorax -4.56448 -0.394747 0.741009
lowerneck -11.0423 -3.27644 -5.65353
upperneck 38.2459 -4.26857 6.45004
head 15.6037 -1.1276 3.27409
rclavicle 2.46493e-014 2.38542e-015
rhumerus 9.00007 -21.632 -31.251
rradius 36.8459
rwrist -34.6833
rhand -1.17601 18.8631
rfingers 7.12502
rthumb 24.4635 -9.59466
lclavicle 2.46493e-014 2.38542e-015
lhumerus 9.34531 33.0111 23.2119
lradius 33.129
lwrist 37.5415
lhand 12.7731 26.6949
lfingers 7.12502
lthumb 37.7515 52.5613
rfemur -9.91645 11.4436 18.7683
rtibia 14.1711
rfoot -18.017 -24.3348
rtoes -12.3366
lfemur -3.00536 -22.236 -15.0395
ltibia -1.74931e-014
lfoot -13.4819 24.6145
ltoes -9.57365
1478
root 1.26822 17.7312 0.696852 -175.95 87.3817 169.25
lowerback -15.8946 -2.0644 -0.448994
upperback -12.6369 -1.70762 0.708811
thorax -4.55417 -0.393614 0.770533
lowerneck -11.008 -3.28648 -5.65352
upperneck 38.2105 -4.29942 6.48839
head 15.5813 -1.13642 3.28404
rclavicle 1.68967e-014 -3.97569e-016
rhumerus 8.78712 -21.2832 -31.0619
rradius 37.1233
rwrist -34.9737
rhand -1.16363 18.8836
rfingers 7.12502
rthumb 24.4754 -9.57257
lclavicle 1.68967e-014 -3.97569e-016
lhumerus 9.39761 32.9439 23.2392
lradius 33.1342
lwrist 37.4137
lhand 12.7783 26.7608
lfingers 7.12502
lthumb 37.7565 52.6259
rfemur -9.87704 11.2897 18.7368
rtibia 14.3062
rfoot -18.3271 -24.0769
rtoes -11.9051
lfemur -2.9929 -22.254 -15.1183
ltibia -3.33958e-014
lfoot -13.5293 24.591
ltoes -9.29667
1479
root 1.26379 17.7327 0.697119 -176.465 87.375 168.731
lowerback -15.8687 -2.0819 -0.497007
upperback -12.6336 -1.72657 0.718709
thorax -4.56182 -0.399879 0.806168
lowerneck -10.9561 -3.26614 -5.65822
upperneck 38.1983 -4.28342 6.53432
head 15.5626 -1.12403 3.30719
rclavicle 5.01931e-015 -3.57812e-015
rhumerus 8.52566 -20.8486 -30.8729
rradius 37.4311
rwrist -35.2521
rhand -1.17178 18.8596
rfingers 7.12502
rthumb 24.4675 -9.59766
lclavicle 5.01931e-015 -3.57812e-015
lhumerus 9.31686 32.7868 23.1893
lradius 33.2254
lwrist 37.3056
lhand 12.5776 26.8687
lfingers 7.12502
lthumb 37.5668 52.7845
rfemur -9.81436 11.2972 18.7154
rtibia 14.2092
rfoot -18.3696 -24.0361
rtoes -11.7127
lfemur -3.02179 -22.262 -15.1323
ltibia -1.27222e-014
lfoot -13.6268 24.5809
ltoes -9.12197
1480
root 1.25958 17.7332 0.696762 -175.934 87.3389 169.247
lowerback -15.839 -2.11746 -0.505386
upperback -12.6372 -1.77232 0.76216
thorax -4.57887 -0.42048 0.852054
lowerneck -10.9291 -3.23986 -5.63856
upperneck 38.1875 -4.24231 6.51653
head 15.5455 -1.10657 3.30185
rclavicle -1.45113e-014 -1.59028e-015
rhumerus 8.28686 -20.3428 -30.6693
rradius 37.7932
rwrist -35.523
rhand -1.33223 18.7152
rfingers 7.12502
rthumb 24.3137 -9.76279
lclavicle -1.45113e-014 -1.59028e-015
lhumerus 9.2161 32.7051 23.1958
lradius 33.3039
lwrist 37.1953
lhand 12.4694 27.0874
lfingers 7.12502
lthumb 37.4646 53.0304
rfemur -9.87888 11.3478 18.7327
rtibia 14.284
rfoot -18.4262 -24.1179
rtoes -11.7951
lfemur -3.07845 -22.2949 -15.087
ltibia 3.18055e-015
lfoot -13.5429 24.6195
ltoes -9.26657
1481
root 1.25566 17.734 0.695626 -174.123 87.2971 171.065
lowerback -15.8095 -2.10901 -0.406778
upperback -12.6227 -1.77403 0.780008
thorax -4.58098 -0.428267 0.815988
lowerneck -10.9069 -3.24058 -5.63076
upperneck 38.1554 -4.25367 6.53629
head 15.5252 -1.10842 3.30551
rclavicle 2.48481e-015 -6.95746e-015
rhumerus 7.99677 -19.9429 -30.4693
rradius 38.1376
rwrist -35.7997
rhand -1.40971 18.5372
rfingers 7.12502
rthumb 24.2394 -9.95067
lclavicle 2.48481e-015 -6.95746e-015
lhumerus 9.27369 32.699 23.3282
lradius 33.3229
lwrist 36.8641
lhand 12.5627 27.1046
lfingers 7.12502
lthumb 37.5527 53.0242
rfemur -9.89875 11.3144 18.8265
rtibia 14.328
rfoot -18.4533 -24.1152
rtoes -11.9376
lfemur -3.10343 -22.3282 -14.9819
ltibia -6.36111e-015
lfoot -13.4825 24.6216
ltoes -9.31298
1482
root 1.25179 17.7351 0.694001 -173.823 87.2527 171.356
lowerback -15.7853 -2.12889 -0.401575
upperback -12.6211 -1.80113 0.803569
thorax -4.59089 -0.441451 0.835315
lowerneck -10.8614 -3.22855 -5.61675
upperneck 38.1264 -4.23292 6.51738
head 15.4965 -1.10108 3.29643
rclavicle 1.2424e-014 7.95139e-015
rhumerus 7.80892 -19.7774 -30.4402
rradius 38.4324
rwrist -35.771
rhand -1.37994 18.4779
rfingers 7.12502
rthumb 24.268 -10.0062
lclavicle 1.2424e-014 7.95139e-015
lhumerus 9.1526 32.5883 23.318
lradius 33.4202
lwrist 36.555
lhand 12.7089 26.9776
lfingers 7.12502
lthumb 37.6909 52.8602
rfemur -9.97277 11.208 18.8418
rtibia 14.4226
rfoot -18.4198 -24.108
rtoes -12.0342
lfemur -3.13778 -22.3708 -14.9579
ltibia -3.18055e-015
lfoot -13.3252 24.6626
ltoes -9.8593
